<svg width="199" height="20" viewBox="0 0 199 20" fill="none" xmlns="http://www.w3.org/2000/svg">
  <rect x="0.5" y="0.5" width="35.4128" height="19" rx="0.5" fill="#F4F4F4" stroke="#DDDDDD"></rect>
  <path fill-rule="evenodd" clip-rule="evenodd" d="M13.923 13.958L15.3099 5.94958H17.5281L16.1402 13.958H13.923Z" fill="#004F8B"></path>
  <path fill-rule="evenodd" clip-rule="evenodd" d="M24.1852 6.1467C23.7457 5.98439 23.0571 5.81042 22.1971 5.81042C20.0055 5.81042 18.4614 6.89656 18.4483 8.4532C18.436 9.60393 19.5506 10.2459 20.3919 10.629C21.2552 11.0214 21.5456 11.2718 21.5414 11.6223C21.536 12.1591 20.8519 12.4044 20.2143 12.4044C19.3266 12.4044 18.855 12.2831 18.1265 11.9841L17.8406 11.8567L17.5293 13.6495C18.0475 13.873 19.0056 14.0667 20.0001 14.0767C22.3319 14.0767 23.8455 13.003 23.8628 11.3407C23.8712 10.4297 23.2801 9.73632 22.0005 9.16487C21.2251 8.79439 20.7503 8.54709 20.7553 8.172C20.7553 7.83911 21.1572 7.4832 22.0256 7.4832C22.751 7.47215 23.2763 7.62771 23.6857 7.79002L23.8845 7.88237L24.1852 6.1467Z" fill="#004F8B"></path>
  <path fill-rule="evenodd" clip-rule="evenodd" d="M29.8732 5.95728H28.1592C27.6282 5.95728 27.2308 6.09979 26.9976 6.62138L23.7034 13.9606H26.0327C26.0327 13.9606 26.4135 12.9737 26.4997 12.7571C26.7543 12.7571 29.0169 12.7605 29.3403 12.7605C29.4068 13.0408 29.6103 13.9606 29.6103 13.9606H31.6686L29.8732 5.95728ZM27.1381 11.119C27.3214 10.6576 28.0218 8.88032 28.0218 8.88032C28.0086 8.90165 28.2039 8.41672 28.3158 8.11604L28.4658 8.80653C28.4658 8.80653 28.8906 10.7182 28.9793 11.119H27.1381Z" fill="#004F8B"></path>
  <path fill-rule="evenodd" clip-rule="evenodd" d="M12.0626 5.95532L9.89086 11.4165L9.65952 10.3066C9.2553 9.02719 7.99571 7.64113 6.5874 6.94727L8.57313 13.951L10.92 13.9484L14.4121 5.95532H12.0626Z" fill="#004F8B"></path>
  <path fill-rule="evenodd" clip-rule="evenodd" d="M7.87635 5.95056H4.29961L4.27124 6.11716C7.05403 6.78004 8.89524 8.38194 9.65957 10.3068L8.88183 6.62664C8.74746 6.11946 8.35805 5.9682 7.87635 5.95056Z" fill="#ED9F2D"></path>
  <rect x="41.1469" y="0.5" width="35.4128" height="19" rx="0.5" fill="#F4F4F4" stroke="#DDDDDD"></rect>
  <path fill-rule="evenodd" clip-rule="evenodd" d="M66.9762 16.2084V14.8577H66.6578V15.6411C66.5437 15.4967 66.3659 15.415 66.1801 15.4218C65.7404 15.4218 65.384 15.7725 65.384 16.2052C65.384 16.6379 65.7404 16.9887 66.1801 16.9887C66.3659 16.9955 66.5437 16.9138 66.6578 16.7693V16.9511H66.9762V16.2084ZM57.1041 15.4594H57.6487L57.6518 15.7571H57.1105V16.4403C57.1105 16.5907 57.171 16.691 57.3302 16.691C57.4336 16.6876 57.5344 16.6585 57.6232 16.6064L57.7187 16.8853C57.5946 16.9615 57.4511 17.0017 57.3047 17.0013C56.913 17.0013 56.7761 16.7944 56.7761 16.4466V15.7571H56.4672V15.4594H56.7697V15.005H57.1041V15.4594ZM52.7014 16.0172V16.9574L52.367 16.9636V16.13C52.367 15.8762 52.2587 15.7351 52.0326 15.7351C51.9266 15.7301 51.8237 15.7716 51.7518 15.8484C51.6798 15.9253 51.6462 16.0295 51.66 16.1331V16.9636H51.3256V16.13C51.3256 15.8762 51.2142 15.7351 50.9945 15.7351C50.8882 15.7295 50.785 15.7708 50.7129 15.8478C50.6408 15.9248 50.6075 16.0294 50.6219 16.1331V16.9574H50.2875V15.4594H50.6187V15.6443C50.7167 15.4975 50.8863 15.4129 51.0645 15.4218C51.2692 15.4131 51.4622 15.5153 51.5677 15.6881C51.6833 15.51 51.8883 15.4079 52.1027 15.4218C52.2653 15.4124 52.4242 15.4723 52.5388 15.5863C52.6534 15.7002 52.7126 15.8572 52.7014 16.0172ZM60.4733 15.4218C60.3088 15.417 60.1549 15.5012 60.0721 15.6411V15.4594H59.7441V16.9574H60.0753V16.1175C60.0753 15.8699 60.1835 15.732 60.3937 15.732C60.4646 15.7311 60.5349 15.7438 60.6007 15.7696L60.7026 15.4562C60.627 15.4296 60.5473 15.4158 60.467 15.4155L60.4733 15.4218ZM55.5818 15.4218C55.7998 15.4144 56.0153 15.4688 56.2028 15.5785L56.0563 15.8417C55.9109 15.7594 55.7464 15.7152 55.5786 15.7132C55.3971 15.7132 55.2888 15.7885 55.2888 15.8887C55.2888 15.989 55.4035 16.0172 55.5468 16.036L55.706 16.058C56.0372 16.105 56.2378 16.2209 56.2378 16.5061C56.2378 16.7913 55.9831 16.995 55.5436 16.995C55.3084 17.0014 55.0773 16.9333 54.8844 16.8007L55.0436 16.5469C55.1897 16.6535 55.3681 16.7087 55.55 16.7036C55.7761 16.7036 55.8971 16.6377 55.8971 16.5218C55.8971 16.4372 55.8111 16.3902 55.6296 16.3651L55.4704 16.3432C55.1296 16.2961 54.9449 16.1457 54.9449 15.9013C54.9449 15.6036 55.1965 15.4218 55.5818 15.4218ZM65.0735 15.4218C64.909 15.417 64.755 15.5012 64.6722 15.6411V15.4594H64.3442V16.9574H64.6754V16.1175C64.6754 15.8699 64.7837 15.732 64.9939 15.732C65.0647 15.7311 65.135 15.7438 65.2009 15.7696L65.3028 15.4562C65.2271 15.4296 65.1474 15.4158 65.0671 15.4155L65.0735 15.4218ZM61.0363 16.7735C60.8817 16.6244 60.7982 16.4181 60.8061 16.2052V16.199C60.7982 15.9861 60.8817 15.7798 61.0363 15.6307C61.1908 15.4816 61.4021 15.4034 61.6182 15.4155C61.8171 15.4055 62.0125 15.4693 62.166 15.5941L62.0067 15.8574C61.8922 15.7715 61.7526 15.7242 61.6087 15.7226C61.3548 15.7428 61.1592 15.9515 61.1592 16.2021C61.1592 16.4527 61.3548 16.6614 61.6087 16.6816C61.7526 16.68 61.8922 16.6328 62.0067 16.5468L62.166 16.8101C62.0125 16.9349 61.8171 16.9987 61.6182 16.9887C61.4021 17.0008 61.1908 16.9226 61.0363 16.7735ZM63.9079 16.2052V15.4594H63.5767V15.6411C63.4626 15.4967 63.2849 15.415 63.0991 15.4218C62.6594 15.4218 62.3029 15.7725 62.3029 16.2052C62.3029 16.6379 62.6594 16.9887 63.0991 16.9887C63.2849 16.9955 63.4626 16.9138 63.5767 16.7693V16.9511H63.9079V16.2052ZM63.1521 15.7793C62.902 15.7701 62.6902 15.9593 62.6755 16.2052C62.667 16.3304 62.7121 16.4533 62.7998 16.5444C62.8874 16.6354 63.0098 16.6863 63.1372 16.6847C63.3876 16.6834 63.5909 16.4855 63.595 16.2392C63.599 15.9929 63.4023 15.7886 63.1521 15.7793ZM58.6788 15.4218C58.2391 15.4278 57.8877 15.7835 57.8938 16.2162C57.9 16.6489 58.2614 16.9948 58.7011 16.9887C58.9302 17.0003 59.1555 16.9277 59.3332 16.785L59.174 16.5437C59.0483 16.6429 58.8925 16.6981 58.7314 16.7004C58.5037 16.7197 58.3019 16.5571 58.276 16.3337H59.4065V16.2084C59.4065 15.7383 59.1103 15.4249 58.6836 15.4249L58.6788 15.4218ZM58.948 15.8164C58.8758 15.7483 58.7789 15.7111 58.6788 15.7132H58.6725C58.4597 15.7061 58.28 15.8675 58.268 16.0768H59.0642C59.0621 15.9783 59.0203 15.8846 58.948 15.8164ZM67.5893 16.7506C67.5713 16.7435 67.5521 16.7398 67.5327 16.7396H67.5336C67.5113 16.7387 67.489 16.7424 67.4683 16.7506C67.45 16.7579 67.4333 16.7685 67.4189 16.7819C67.4049 16.7954 67.3936 16.8113 67.3855 16.8289C67.3694 16.8659 67.3694 16.9078 67.3855 16.9449C67.4114 16.9999 67.4672 17.0353 67.5288 17.0357C67.5496 17.0358 67.5702 17.0315 67.5893 17.0232C67.6076 17.0159 67.6243 17.0052 67.6387 16.9919C67.6527 16.9784 67.664 16.9624 67.6721 16.9449C67.6884 16.9079 67.6884 16.8659 67.6721 16.8289C67.664 16.8113 67.6527 16.7954 67.6387 16.7819C67.6243 16.7685 67.6076 16.7579 67.5893 16.7506ZM67.5302 17.0044C67.5456 17.0043 67.5608 17.0011 67.575 16.995C67.5887 16.9889 67.6011 16.9804 67.6116 16.9699C67.6529 16.9256 67.6529 16.8575 67.6116 16.8132C67.6011 16.8026 67.5887 16.7941 67.575 16.7881C67.5604 16.7819 67.5447 16.7787 67.5288 16.7787C67.5129 16.7788 67.4972 16.782 67.4826 16.7881C67.4683 16.7939 67.4553 16.8024 67.4444 16.8132C67.4031 16.8575 67.4031 16.9256 67.4444 16.9699C67.4553 16.9806 67.4683 16.9892 67.4826 16.995C67.4987 17.0018 67.5161 17.005 67.5336 17.0044H67.5302ZM67.5798 16.8304C67.5679 16.8216 67.5532 16.8172 67.5384 16.8179L67.4715 16.8195V16.9574H67.5017V16.9057H67.5161L67.5591 16.9574H67.5957L67.5495 16.9057C67.5619 16.9048 67.5737 16.8998 67.5829 16.8916C67.5905 16.8841 67.5946 16.8739 67.5941 16.8634C67.595 16.8508 67.5897 16.8385 67.5798 16.8304ZM67.5033 16.8446V16.8822H67.5384C67.5446 16.884 67.5512 16.884 67.5575 16.8822C67.5597 16.8777 67.5597 16.8725 67.5575 16.8681C67.5597 16.8636 67.5597 16.8584 67.5575 16.854C67.5512 16.8521 67.5446 16.8521 67.5384 16.854L67.5033 16.8446ZM66.2284 15.7825C65.9783 15.7733 65.7665 15.9625 65.7518 16.2084C65.7433 16.3335 65.7884 16.4565 65.8761 16.5475C65.9637 16.6386 66.0861 16.6895 66.2135 16.6879C66.4639 16.6866 66.6672 16.4886 66.6713 16.2423C66.6753 15.996 66.4786 15.7917 66.2284 15.7825ZM54.5692 16.2084V15.4594H54.238V15.6411C54.1239 15.4967 53.9461 15.415 53.7603 15.4218C53.3206 15.4218 52.9641 15.7725 52.9641 16.2052C52.9641 16.6379 53.3206 16.9887 53.7603 16.9887C53.9461 16.9955 54.1239 16.9138 54.238 16.7693V16.9511H54.5692V16.2084ZM53.8134 15.7825C53.5632 15.7733 53.3515 15.9625 53.3367 16.2084H53.3336C53.3251 16.3341 53.3705 16.4576 53.4589 16.5487C53.5473 16.6399 53.6705 16.6903 53.7985 16.6879C54.0488 16.6866 54.2522 16.4886 54.2562 16.2423C54.2603 15.996 54.0635 15.7917 53.8134 15.7825Z" fill="#231F20"></path>
  <path d="M56.093 4.04407H61.1087V12.9146H56.093V4.04407Z" fill="#FF5F00"></path>
  <path d="M56.4114 8.48015C56.4095 6.74891 57.2169 5.11302 58.6008 4.04411C56.2505 2.22646 52.8755 2.49122 50.8475 4.65232C48.8195 6.81343 48.8195 10.1453 50.8475 12.3064C52.8755 14.4675 56.2505 14.7323 58.6008 12.9146C57.2173 11.8461 56.41 10.2109 56.4114 8.48015Z" fill="#EB001B"></path>
  <path d="M67.8758 8.48015C67.8757 10.6399 66.6226 12.6101 64.6485 13.5539C62.6744 14.4977 60.326 14.2495 58.6007 12.9146C59.9835 11.8452 60.7909 10.2102 60.7909 8.47937C60.7909 6.74858 59.9835 5.11359 58.6007 4.04411C60.326 2.70925 62.6744 2.461 64.6485 3.40482C66.6226 4.34863 67.8757 6.3188 67.8758 8.47859V8.48015Z" fill="#F79E1B"></path>
  <path fill-rule="evenodd" clip-rule="evenodd" d="M67.3281 11.826V12.1688H67.2947V11.826H67.2135V11.7551H67.403V11.826H67.3281ZM67.696 11.7551V12.1688L67.6626 12.1718V11.8586L67.6005 12.1275H67.5575L67.4954 11.8586V12.1688H67.454V11.7551H67.5049L67.5718 12.0506L67.6387 11.7551H67.696Z" fill="#F79E1B"></path>
  <rect x="81.7936" y="0.5" width="35.4128" height="19" rx="0.5" fill="#F4F4F4" stroke="#DDDDDD"></rect>
  <path fill-rule="evenodd" clip-rule="evenodd" d="M101.024 16.4965C104.666 16.4965 107.968 13.5798 107.968 9.91313C107.968 5.99646 104.666 3.24646 101.024 3.24646H97.8918C94.2497 3.24646 91.2012 5.99646 91.2012 9.91313C91.2012 13.4965 94.165 16.4965 97.8918 16.4965H101.024Z" fill="#084D95"></path>
  <path fill-rule="evenodd" clip-rule="evenodd" d="M97.8917 3.82959C94.5045 3.82959 91.7947 6.49626 91.7947 9.91292C91.7947 13.2463 94.5045 15.9129 97.8917 15.9971C101.279 15.9971 103.988 13.3296 103.988 9.91292C103.988 6.57959 101.279 3.82959 97.8917 3.82959ZM94.081 9.91292C94.081 8.32959 95.1819 6.82959 96.6214 6.32959V13.4971C95.0963 12.9963 94.081 11.4963 94.081 9.91292ZM99.2466 13.4129V6.32959C100.686 6.91292 101.787 8.24626 101.787 9.91292C101.787 11.4963 100.686 12.9963 99.2466 13.4129Z" fill="white"></path>
  <rect x="122.44" y="0.5" width="35.4128" height="19" rx="0.5" fill="#F4F4F4" stroke="#DDDDDD"></rect>
  <path fill-rule="evenodd" clip-rule="evenodd" d="M128.576 10.176C128.864 9.92478 129.037 9.51967 129.037 9.11545C129.037 8.71211 128.864 8.32116 128.576 8.06907C128.299 7.82318 127.973 7.72765 127.433 7.72765H127.209V10.5112H127.433C127.973 10.5112 128.313 10.4104 128.576 10.176ZM127.601 7.01562C128.952 7.01562 129.896 7.87891 129.896 9.12165C129.896 9.74081 129.607 10.3405 129.12 10.7385C128.709 11.0729 128.241 11.2241 127.594 11.2241H126.375V7.01562H127.601Z" fill="#001722"></path>
  <path fill-rule="evenodd" clip-rule="evenodd" d="M130.281 11.2238H131.115V7.01526H130.281V11.2238Z" fill="#001722"></path>
  <path fill-rule="evenodd" clip-rule="evenodd" d="M133.154 8.62979C132.653 8.4467 132.505 8.3264 132.505 8.09997C132.505 7.8355 132.768 7.63383 133.128 7.63383C133.378 7.63383 133.584 7.73466 133.802 7.97348L134.237 7.4127C133.879 7.10224 133.448 6.94568 132.981 6.94568C132.225 6.94568 131.647 7.46312 131.647 8.15038C131.647 8.73062 131.916 9.02694 132.699 9.30556C133.025 9.41877 133.192 9.49396 133.276 9.54526C133.442 9.65317 133.525 9.80354 133.525 9.98044C133.525 10.3219 133.249 10.5739 132.877 10.5739C132.48 10.5739 132.16 10.3785 131.968 10.0123L131.429 10.5244C131.813 11.079 132.274 11.3249 132.911 11.3249C133.775 11.3249 134.385 10.7562 134.385 9.94241C134.385 9.2746 134.103 8.97121 133.154 8.62979Z" fill="#001722"></path>
  <path fill-rule="evenodd" clip-rule="evenodd" d="M134.647 9.12169C134.647 10.3591 135.635 11.3179 136.905 11.3179C137.264 11.3179 137.572 11.2489 137.95 11.0729V10.107C137.617 10.4352 137.322 10.567 136.944 10.567C136.103 10.567 135.507 9.96817 135.507 9.1155C135.507 8.30882 136.122 7.67109 136.905 7.67109C137.302 7.67109 137.603 7.80996 137.95 8.1443V7.17841C137.586 6.9962 137.284 6.92102 136.924 6.92102C135.661 6.92102 134.647 7.89929 134.647 9.12169Z" fill="#001722"></path>
  <path fill-rule="evenodd" clip-rule="evenodd" d="M144.709 9.84216L143.566 7.01526H142.657L144.472 11.3317H144.92L146.767 7.01526H145.863L144.709 9.84216Z" fill="#001722"></path>
  <path fill-rule="evenodd" clip-rule="evenodd" d="M147.146 11.2238H149.512V10.5109H147.981V9.37514H149.454V8.66222H147.981V7.72818H149.512V7.01526H147.146V11.2238Z" fill="#001722"></path>
  <path fill-rule="evenodd" clip-rule="evenodd" d="M151.14 8.95235H150.897V7.67777H151.154C151.674 7.67777 151.956 7.89271 151.956 8.30224C151.956 8.72415 151.674 8.95235 151.14 8.95235ZM152.814 8.25711C152.814 7.46901 152.264 7.01526 151.301 7.01526H150.063V11.2238H150.897V9.53258H151.007L152.16 11.2238H153.186L151.839 9.45032C152.469 9.32384 152.814 8.90104 152.814 8.25711Z" fill="#001722"></path>
  <path fill-rule="evenodd" clip-rule="evenodd" d="M153.245 7.37947H153.228V7.28306H153.246C153.29 7.28306 153.312 7.29898 153.312 7.32994C153.312 7.36267 153.289 7.37947 153.245 7.37947ZM153.402 7.32907C153.402 7.25477 153.352 7.21497 153.26 7.21497H153.139V7.58558H153.228V7.4414L153.334 7.58558H153.445L153.32 7.43256C153.374 7.4184 153.402 7.38037 153.402 7.32907Z" fill="#231F20"></path>
  <path fill-rule="evenodd" clip-rule="evenodd" d="M153.277 7.6653C153.132 7.6653 153.014 7.54677 153.014 7.39994C153.014 7.25223 153.131 7.13459 153.277 7.13459C153.419 7.13459 153.537 7.25488 153.537 7.39994C153.537 7.54589 153.419 7.6653 153.277 7.6653ZM153.278 7.07532C153.096 7.07532 152.949 7.22038 152.949 7.39905C152.949 7.57861 153.097 7.72278 153.278 7.72278C153.457 7.72278 153.603 7.57772 153.603 7.39905C153.603 7.22215 153.457 7.07532 153.278 7.07532Z" fill="#231F20"></path>
  <path fill-rule="evenodd" clip-rule="evenodd" d="M133.85 12.3293L134.966 13.4801V12.3895H135.126V13.8604L134.01 12.7132V13.7976H133.85V12.3293Z" fill="#231F20"></path>
  <path fill-rule="evenodd" clip-rule="evenodd" d="M133.865 12.3665C133.915 12.4169 134.981 13.5173 134.981 13.5173V12.4036H135.111V13.8242C135.061 13.7738 133.995 12.6761 133.995 12.6761V13.7835H133.865V12.3665ZM133.836 12.3294V13.8127H134.025V12.7495C134.073 12.799 135.14 13.8967 135.14 13.8967V12.3754H134.951V13.4438C134.902 13.3925 133.836 12.2931 133.836 12.2931V12.3294Z" fill="#231F20"></path>
  <path fill-rule="evenodd" clip-rule="evenodd" d="M135.898 12.3899H136.64V12.535H136.058V12.9542H136.623V13.0993H136.058V13.6521H136.64V13.798H135.898V12.3899Z" fill="#231F20"></path>
  <path fill-rule="evenodd" clip-rule="evenodd" d="M136.625 12.4037V12.5204H136.042V12.9689H136.607V13.0847H136.042V13.6668H136.625V13.7835H135.913V12.4037H136.625ZM136.64 12.3754H135.883V13.8127H136.654V13.6376H136.073V13.1139H136.637V12.9388H136.073V12.5505H136.654V12.3754H136.64Z" fill="#231F20"></path>
  <path fill-rule="evenodd" clip-rule="evenodd" d="M137.765 13.7977H137.606V12.5346H137.261V12.3895H138.115V12.5346H137.765V13.7977Z" fill="#231F20"></path>
  <path fill-rule="evenodd" clip-rule="evenodd" d="M138.099 12.4037V12.5204H137.75V13.7835H137.621V12.5204H137.275V12.4037H138.099ZM138.115 12.3754H137.245V12.5505H137.591V13.8127H137.78V12.5505H138.129V12.3754H138.115Z" fill="#231F20"></path>
  <path fill-rule="evenodd" clip-rule="evenodd" d="M139.181 13.4445L139.644 12.3168L140.107 13.4445L140.482 12.3902H140.656L140.107 13.87L139.644 12.736L139.181 13.87L138.633 12.3902H138.805L139.181 13.4445Z" fill="#231F20"></path>
  <path fill-rule="evenodd" clip-rule="evenodd" d="M139.194 13.4497C139.194 13.4497 139.618 12.4192 139.643 12.3564C139.669 12.4192 140.108 13.486 140.108 13.486C140.108 13.486 140.486 12.4237 140.493 12.4033H140.634C140.62 12.4405 140.131 13.7619 140.106 13.83C140.078 13.7628 139.643 12.697 139.643 12.697C139.643 12.697 139.208 13.7628 139.181 13.83C139.156 13.7619 138.668 12.4405 138.654 12.4033H138.795C138.801 12.4237 139.18 13.486 139.18 13.486L139.194 13.4497ZM139.63 12.3113C139.63 12.3113 139.209 13.3356 139.181 13.4028C139.157 13.3347 138.816 12.375 138.816 12.375H138.612L139.181 13.9114C139.181 13.9114 139.618 12.8411 139.643 12.7757C139.669 12.8411 140.107 13.9114 140.107 13.9114L140.676 12.375H140.472C140.472 12.375 140.13 13.3347 140.106 13.4028C140.078 13.3356 139.643 12.2777 139.643 12.2777L139.63 12.3113Z" fill="#231F20"></path>
  <path fill-rule="evenodd" clip-rule="evenodd" d="M141.384 13.0938C141.384 13.4105 141.645 13.6758 141.97 13.6758C142.295 13.6758 142.557 13.4105 142.557 13.0938C142.557 12.7745 142.299 12.5109 141.97 12.5109C141.642 12.5109 141.384 12.7745 141.384 13.0938ZM142.716 13.0956C142.716 13.5007 142.377 13.8218 141.97 13.8218C141.562 13.8218 141.225 13.5007 141.225 13.0956C141.225 12.6922 141.562 12.3658 141.97 12.3658C142.377 12.3658 142.716 12.6922 142.716 13.0956Z" fill="#231F20"></path>
  <path fill-rule="evenodd" clip-rule="evenodd" d="M141.239 13.0955C141.239 12.701 141.566 12.3799 141.97 12.3799C142.373 12.3799 142.701 12.701 142.701 13.0955C142.701 13.4873 142.373 13.8075 141.97 13.8075C141.566 13.8075 141.239 13.4873 141.239 13.0955ZM141.209 13.0955C141.209 13.5032 141.551 13.8367 141.97 13.8367C142.39 13.8367 142.731 13.5032 142.731 13.0955C142.731 12.6842 142.39 12.3507 141.97 12.3507C141.551 12.3507 141.209 12.6842 141.209 13.0955Z" fill="#231F20"></path>
  <path fill-rule="evenodd" clip-rule="evenodd" d="M141.399 13.0938C141.399 12.7807 141.655 12.5251 141.971 12.5251C142.285 12.5251 142.541 12.7807 142.541 13.0938C142.541 13.4069 142.285 13.6617 141.971 13.6617C141.655 13.6617 141.399 13.4069 141.399 13.0938ZM141.368 13.0938C141.368 13.4237 141.64 13.6908 141.971 13.6908C142.302 13.6908 142.571 13.4237 142.571 13.0938C142.571 12.7639 142.302 12.4958 141.971 12.4958C141.64 12.4958 141.368 12.7639 141.368 13.0938Z" fill="#231F20"></path>
  <path fill-rule="evenodd" clip-rule="evenodd" d="M143.566 13.0411H143.616C143.795 13.0411 143.978 13.0075 143.978 12.7891C143.978 12.5582 143.806 12.5352 143.615 12.5352H143.566V13.0411ZM143.566 13.7974H143.407V12.3901H143.615C143.884 12.3901 144.138 12.4609 144.138 12.7776C144.138 12.9943 143.999 13.1482 143.779 13.1667L144.234 13.7974H144.038L143.607 13.1791H143.566V13.7974Z" fill="#231F20"></path>
  <path fill-rule="evenodd" clip-rule="evenodd" d="M143.614 12.4037C143.96 12.4037 144.122 12.5231 144.122 12.7778C144.122 12.9875 143.987 13.1343 143.778 13.152L143.751 13.1546C143.751 13.1546 144.175 13.7402 144.206 13.7835H144.039C144.039 13.772 143.618 13.1705 143.618 13.1705L143.566 13.1644H143.551V13.7835H143.422V12.4037H143.614ZM143.408 12.3754H143.392V13.8127H143.581V13.1944H143.605C143.605 13.2042 144.027 13.8056 144.027 13.8056L144.234 13.8127H144.263C144.263 13.8127 143.826 13.2077 143.804 13.175C144.014 13.1467 144.153 12.9945 144.153 12.7778C144.153 12.5063 143.976 12.3754 143.614 12.3754H143.408Z" fill="#231F20"></path>
  <path fill-rule="evenodd" clip-rule="evenodd" d="M143.614 12.5505C143.798 12.5505 143.963 12.5681 143.963 12.7893C143.963 12.998 143.787 13.0254 143.616 13.0254H143.581V12.5505H143.614ZM143.566 12.5204H143.551V13.0555H143.616C143.791 13.0555 143.993 13.0254 143.993 12.7893C143.993 12.5407 143.797 12.5204 143.614 12.5204H143.566Z" fill="#231F20"></path>
  <path fill-rule="evenodd" clip-rule="evenodd" d="M145.679 12.3899H145.893L145.221 13.0453L145.916 13.798H145.696L145.109 13.1515L145.068 13.1895V13.798H144.91V12.3899H145.068V12.9931L145.679 12.3899Z" fill="#231F20"></path>
  <path fill-rule="evenodd" clip-rule="evenodd" d="M145.856 12.4037C145.808 12.4514 145.201 13.0449 145.201 13.0449C145.201 13.0449 145.839 13.7366 145.881 13.7835H145.695C145.695 13.7756 145.12 13.1414 145.12 13.1414L145.109 13.1299L145.058 13.1803C145.058 13.1803 145.053 13.7543 145.053 13.7835H144.925V12.4037H145.053V13.0281C145.053 13.0281 145.676 12.4125 145.684 12.4037H145.856ZM145.893 12.3754H145.673C145.673 12.3754 145.13 12.9105 145.085 12.9574V12.3754H144.895V13.8127H145.085V13.1927C145.087 13.1935 145.098 13.182 145.107 13.1723C145.127 13.1944 145.684 13.8074 145.684 13.8074L145.915 13.8127H145.95C145.95 13.8127 145.261 13.0662 145.24 13.0467C145.262 13.0255 145.928 12.3754 145.928 12.3754H145.893Z" fill="#231F20"></path>
  <path fill-rule="evenodd" clip-rule="evenodd" d="M140.484 11.2241C141.725 11.2241 142.731 10.2341 142.731 9.01279C142.731 7.79154 141.725 6.80151 140.484 6.80151C139.243 6.80151 138.237 7.79154 138.237 9.01279C138.237 10.2341 139.243 11.2241 140.484 11.2241Z" fill="url(#paint0_radial)"></path>
  <rect x="163.087" y="0.5" width="35.4128" height="19" rx="0.5" fill="#F4F4F4" stroke="#DDDDDD"></rect>
  <path fill-rule="evenodd" clip-rule="evenodd" d="M174.043 16.4768H176.406C177.236 16.4768 178.197 15.7102 178.197 14.7135V3.26599H175.913C174.848 3.26599 174.043 3.93099 174.043 5.08099V16.4768Z" fill="#00A0E3"></path>
  <path fill-rule="evenodd" clip-rule="evenodd" d="M178.717 16.4768H181.079C181.91 16.4768 182.87 15.7102 182.87 14.7135V3.26599H180.586C179.521 3.26599 178.717 3.93099 178.717 5.08099V16.4768Z" fill="#EC1C24"></path>
  <path fill-rule="evenodd" clip-rule="evenodd" d="M183.39 16.4768H185.753C186.583 16.4768 187.544 15.7102 187.544 14.7135V3.26599H185.26C184.195 3.26599 183.39 3.93099 183.39 5.08099V16.4768Z" fill="#00A551"></path>
  <path fill-rule="evenodd" clip-rule="evenodd" d="M174.692 10.1909H174.042C174.225 10.9059 175.082 11.4684 176.043 11.4684C176.925 11.4684 178.12 10.9826 178.12 10.0634V8.40259H176.64V10.0634C176.64 10.5484 176.25 10.9318 175.705 10.9318C175.211 10.9318 174.77 10.6251 174.692 10.1909Z" fill="white"></path>
  <path fill-rule="evenodd" clip-rule="evenodd" d="M185.779 10.9064C186.039 10.9064 186.273 10.6764 186.273 10.4205C186.273 10.1655 186.039 9.93554 185.779 9.93554H184.74V10.9064H185.779ZM184.74 9.67973H185.754C186.012 9.67973 186.246 9.44973 186.246 9.19473C186.246 8.9389 186.012 8.7089 185.754 8.7089H184.74V9.67973ZM187.545 10.5231C187.545 10.9064 187.208 11.2131 186.766 11.2131H183.494V8.40222H186.766C187.155 8.40222 187.492 8.73472 187.492 9.11805C187.492 9.50055 187.155 9.83305 186.766 9.83305C187.208 9.83305 187.545 10.1397 187.545 10.5231Z" fill="white"></path>
  <path fill-rule="evenodd" clip-rule="evenodd" d="M182.767 10.7272V11.2131H180.275C179.496 11.2131 178.846 10.5739 178.846 9.80722C178.846 9.04139 179.496 8.40222 180.275 8.40222H182.767V8.91306C182.17 8.78556 181.599 8.70889 181.313 8.70889C180.69 8.70889 180.197 9.19472 180.197 9.80722C180.197 10.4206 180.69 10.9064 181.313 10.9064C181.599 10.9064 182.17 10.8547 182.767 10.7272Z" fill="white"></path>
  <defs>
    <radialGradient id="paint0_radial" cx="0" cy="0" r="1" gradientUnits="userSpaceOnUse" gradientTransform="translate(140.484 9.01279) rotate(86.2018) scale(2.21615 2.25167)">
      <stop stop-color="white"></stop>
      <stop offset="0.238721" stop-color="#FCE2CB"></stop>
      <stop offset="1" stop-color="#F48627"></stop>
    </radialGradient>
  </defs>
</svg>